<mxfile host="app.diagrams.net" modified="2023-05-30T16:57:18.337Z" agent="Mozilla/5.0 (Windows NT 10.0; Win64; x64; rv:109.0) Gecko/20100101 Firefox/113.0" etag="1I-ok9CmVZMB9r5Ukp8_" version="21.3.5" type="device" pages="2">
  <diagram name="Página-1" id="C2A1jALqTA_EUgnemGDY">
    <mxGraphModel dx="2284" dy="711" grid="1" gridSize="10" guides="1" tooltips="1" connect="1" arrows="1" fold="1" page="1" pageScale="1" pageWidth="850" pageHeight="1100" math="0" shadow="0">
      <root>
        <mxCell id="0" />
        <mxCell id="1" parent="0" />
        <mxCell id="o0utPA0-3fMKJmouzAOa-3" value="" style="edgeStyle=orthogonalEdgeStyle;rounded=0;orthogonalLoop=1;jettySize=auto;html=1;" edge="1" parent="1" source="o0utPA0-3fMKJmouzAOa-1" target="o0utPA0-3fMKJmouzAOa-2">
          <mxGeometry relative="1" as="geometry" />
        </mxCell>
        <mxCell id="o0utPA0-3fMKJmouzAOa-1" value="INICIO" style="ellipse;whiteSpace=wrap;html=1;" vertex="1" parent="1">
          <mxGeometry x="340" y="40" width="120" height="80" as="geometry" />
        </mxCell>
        <mxCell id="4MCsDgW-3FUcUiQcOGne-2" value="" style="edgeStyle=orthogonalEdgeStyle;rounded=0;orthogonalLoop=1;jettySize=auto;html=1;" edge="1" parent="1" source="o0utPA0-3fMKJmouzAOa-2" target="4MCsDgW-3FUcUiQcOGne-1">
          <mxGeometry relative="1" as="geometry" />
        </mxCell>
        <mxCell id="o0utPA0-3fMKJmouzAOa-2" value="opcion Como Entero&lt;br&gt;&lt;div&gt;&lt;br&gt;&lt;/div&gt;&lt;div&gt;&lt;br&gt;&lt;/div&gt;&lt;div&gt;&lt;br&gt;&lt;/div&gt;" style="whiteSpace=wrap;html=1;" vertex="1" parent="1">
          <mxGeometry x="320" y="170" width="160" height="130" as="geometry" />
        </mxCell>
        <mxCell id="qyN2jog4VA1zP8uaVj2I-2" value="" style="edgeStyle=orthogonalEdgeStyle;rounded=0;orthogonalLoop=1;jettySize=auto;html=1;exitX=0.509;exitY=0.867;exitDx=0;exitDy=0;exitPerimeter=0;" edge="1" parent="1" source="4MCsDgW-3FUcUiQcOGne-1" target="qyN2jog4VA1zP8uaVj2I-1">
          <mxGeometry relative="1" as="geometry" />
        </mxCell>
        <mxCell id="4MCsDgW-3FUcUiQcOGne-1" value="&lt;div&gt;&quot;Hola bienvenido a mis recomendaciones Escoge el número de la categorías que prefieras:&lt;/div&gt;&lt;div&gt;1. musica&lt;/div&gt;2. libros&lt;br&gt;3. pelicula&lt;br&gt;4. series&lt;br&gt;5. comida&quot;" style="shape=document;whiteSpace=wrap;html=1;boundedLbl=1;" vertex="1" parent="1">
          <mxGeometry x="288.75" y="360" width="222.5" height="180" as="geometry" />
        </mxCell>
        <mxCell id="g7HpNcafb_eA9cQg56Mi-2" value="" style="edgeStyle=orthogonalEdgeStyle;rounded=0;orthogonalLoop=1;jettySize=auto;html=1;" edge="1" parent="1" source="qyN2jog4VA1zP8uaVj2I-1" target="g7HpNcafb_eA9cQg56Mi-1">
          <mxGeometry relative="1" as="geometry" />
        </mxCell>
        <mxCell id="qyN2jog4VA1zP8uaVj2I-1" value="&quot;opcion&quot;" style="shape=parallelogram;perimeter=parallelogramPerimeter;whiteSpace=wrap;html=1;fixedSize=1;" vertex="1" parent="1">
          <mxGeometry x="340" y="570" width="120" height="60" as="geometry" />
        </mxCell>
        <mxCell id="vbV62_KwQ_cgDQArfJ26-2" value="" style="edgeStyle=orthogonalEdgeStyle;rounded=0;orthogonalLoop=1;jettySize=auto;html=1;" edge="1" parent="1" source="g7HpNcafb_eA9cQg56Mi-1" target="vbV62_KwQ_cgDQArfJ26-1">
          <mxGeometry relative="1" as="geometry" />
        </mxCell>
        <mxCell id="CHC32hZy1CRlPTOwHLyc-1" value="1" style="edgeLabel;html=1;align=center;verticalAlign=middle;resizable=0;points=[];" vertex="1" connectable="0" parent="vbV62_KwQ_cgDQArfJ26-2">
          <mxGeometry x="0.7113" relative="1" as="geometry">
            <mxPoint as="offset" />
          </mxGeometry>
        </mxCell>
        <mxCell id="vbV62_KwQ_cgDQArfJ26-3" style="edgeStyle=orthogonalEdgeStyle;rounded=0;orthogonalLoop=1;jettySize=auto;html=1;" edge="1" parent="1" source="g7HpNcafb_eA9cQg56Mi-1" target="vbV62_KwQ_cgDQArfJ26-4">
          <mxGeometry relative="1" as="geometry">
            <mxPoint x="280" y="840" as="targetPoint" />
          </mxGeometry>
        </mxCell>
        <mxCell id="CHC32hZy1CRlPTOwHLyc-2" value="2" style="edgeLabel;html=1;align=center;verticalAlign=middle;resizable=0;points=[];" vertex="1" connectable="0" parent="vbV62_KwQ_cgDQArfJ26-3">
          <mxGeometry x="0.5676" y="-2" relative="1" as="geometry">
            <mxPoint as="offset" />
          </mxGeometry>
        </mxCell>
        <mxCell id="vbV62_KwQ_cgDQArfJ26-6" value="" style="edgeStyle=orthogonalEdgeStyle;rounded=0;orthogonalLoop=1;jettySize=auto;html=1;" edge="1" parent="1" source="g7HpNcafb_eA9cQg56Mi-1" target="vbV62_KwQ_cgDQArfJ26-5">
          <mxGeometry relative="1" as="geometry" />
        </mxCell>
        <mxCell id="CHC32hZy1CRlPTOwHLyc-3" value="3" style="edgeLabel;html=1;align=center;verticalAlign=middle;resizable=0;points=[];" vertex="1" connectable="0" parent="vbV62_KwQ_cgDQArfJ26-6">
          <mxGeometry x="0.5765" y="-2" relative="1" as="geometry">
            <mxPoint as="offset" />
          </mxGeometry>
        </mxCell>
        <mxCell id="vbV62_KwQ_cgDQArfJ26-7" style="edgeStyle=orthogonalEdgeStyle;rounded=0;orthogonalLoop=1;jettySize=auto;html=1;" edge="1" parent="1" source="g7HpNcafb_eA9cQg56Mi-1" target="vbV62_KwQ_cgDQArfJ26-8">
          <mxGeometry relative="1" as="geometry">
            <mxPoint x="450" y="880" as="targetPoint" />
            <Array as="points">
              <mxPoint x="400" y="830" />
              <mxPoint x="550" y="830" />
            </Array>
          </mxGeometry>
        </mxCell>
        <mxCell id="CHC32hZy1CRlPTOwHLyc-4" value="4" style="edgeLabel;html=1;align=center;verticalAlign=middle;resizable=0;points=[];" vertex="1" connectable="0" parent="vbV62_KwQ_cgDQArfJ26-7">
          <mxGeometry x="0.704" y="-3" relative="1" as="geometry">
            <mxPoint as="offset" />
          </mxGeometry>
        </mxCell>
        <mxCell id="vbV62_KwQ_cgDQArfJ26-10" value="" style="edgeStyle=orthogonalEdgeStyle;rounded=0;orthogonalLoop=1;jettySize=auto;html=1;" edge="1" parent="1" source="g7HpNcafb_eA9cQg56Mi-1" target="vbV62_KwQ_cgDQArfJ26-9">
          <mxGeometry relative="1" as="geometry" />
        </mxCell>
        <mxCell id="CHC32hZy1CRlPTOwHLyc-5" value="5" style="edgeLabel;html=1;align=center;verticalAlign=middle;resizable=0;points=[];" vertex="1" connectable="0" parent="vbV62_KwQ_cgDQArfJ26-10">
          <mxGeometry x="0.7689" y="2" relative="1" as="geometry">
            <mxPoint as="offset" />
          </mxGeometry>
        </mxCell>
        <mxCell id="vbV62_KwQ_cgDQArfJ26-11" style="edgeStyle=orthogonalEdgeStyle;rounded=0;orthogonalLoop=1;jettySize=auto;html=1;" edge="1" parent="1" source="g7HpNcafb_eA9cQg56Mi-1" target="vbV62_KwQ_cgDQArfJ26-12">
          <mxGeometry relative="1" as="geometry">
            <mxPoint x="840" y="880" as="targetPoint" />
          </mxGeometry>
        </mxCell>
        <mxCell id="qJP4CGAvpcmhAhPFVXNk-1" value="&quot;En caso contrario&quot;" style="edgeLabel;html=1;align=center;verticalAlign=middle;resizable=0;points=[];" vertex="1" connectable="0" parent="vbV62_KwQ_cgDQArfJ26-11">
          <mxGeometry x="0.6776" y="4" relative="1" as="geometry">
            <mxPoint as="offset" />
          </mxGeometry>
        </mxCell>
        <mxCell id="g7HpNcafb_eA9cQg56Mi-1" value="&quot;opcion&quot;" style="shape=hexagon;perimeter=hexagonPerimeter2;whiteSpace=wrap;html=1;fixedSize=1;" vertex="1" parent="1">
          <mxGeometry x="340" y="700" width="120" height="80" as="geometry" />
        </mxCell>
        <mxCell id="vbV62_KwQ_cgDQArfJ26-1" value="opcion, &quot;Mis recomendaciones musicales son: Rush, Ulytau, Orphaned land, Korpiklaani y Sisters of Mercy&quot;" style="shape=document;whiteSpace=wrap;html=1;boundedLbl=1;" vertex="1" parent="1">
          <mxGeometry x="-200" y="880" width="180" height="160" as="geometry" />
        </mxCell>
        <mxCell id="vbV62_KwQ_cgDQArfJ26-4" value="opcion, &quot;Mis recomendaciones de libros son: El pais de las sombras largas, Animal Farm, El seductor de la Patria, Cien años de Soledad y Daisy Sisters&quot;" style="shape=document;whiteSpace=wrap;html=1;boundedLbl=1;" vertex="1" parent="1">
          <mxGeometry x="20" y="880" width="180" height="160" as="geometry" />
        </mxCell>
        <mxCell id="vbV62_KwQ_cgDQArfJ26-5" value="opcion, &quot;Mis recomendaciones de películas son:&amp;nbsp; La trilogía de volver al futuro, Gattaca, Soylentil Green, el Hoyo y American Beauty&quot;" style="shape=document;whiteSpace=wrap;html=1;boundedLbl=1;" vertex="1" parent="1">
          <mxGeometry x="240" y="880" width="180" height="160" as="geometry" />
        </mxCell>
        <mxCell id="vbV62_KwQ_cgDQArfJ26-8" value="opcion, &quot;Mis recomendaciones de series: Desperate Houseviwes, Sabrina la bruja adolescente y Malcom el de en medio, Downton Abbe &quot;" style="shape=document;whiteSpace=wrap;html=1;boundedLbl=1;" vertex="1" parent="1">
          <mxGeometry x="460" y="880" width="180" height="160" as="geometry" />
        </mxCell>
        <mxCell id="vbV62_KwQ_cgDQArfJ26-9" value="opcion, &quot;Mis recomendaciones de comida son: Solyanka, Dumplings coreanos, Ramen japonés, Pho y Kvass &quot;" style="shape=document;whiteSpace=wrap;html=1;boundedLbl=1;" vertex="1" parent="1">
          <mxGeometry x="680" y="880" width="180" height="160" as="geometry" />
        </mxCell>
        <mxCell id="vbV62_KwQ_cgDQArfJ26-12" value="opcion, &quot;NO VÁLIDA&quot;" style="shape=document;whiteSpace=wrap;html=1;boundedLbl=1;" vertex="1" parent="1">
          <mxGeometry x="900" y="880" width="180" height="160" as="geometry" />
        </mxCell>
        <mxCell id="qJP4CGAvpcmhAhPFVXNk-2" value="FIN" style="ellipse;whiteSpace=wrap;html=1;" vertex="1" parent="1">
          <mxGeometry x="350" y="1240" width="120" height="80" as="geometry" />
        </mxCell>
        <mxCell id="qJP4CGAvpcmhAhPFVXNk-3" value="" style="endArrow=none;html=1;rounded=0;entryX=0.45;entryY=0.931;entryDx=0;entryDy=0;entryPerimeter=0;" edge="1" parent="1" target="vbV62_KwQ_cgDQArfJ26-1">
          <mxGeometry width="50" height="50" relative="1" as="geometry">
            <mxPoint x="-120" y="1160" as="sourcePoint" />
            <mxPoint x="-120" y="1050" as="targetPoint" />
            <Array as="points">
              <mxPoint x="-119" y="1090" />
            </Array>
          </mxGeometry>
        </mxCell>
        <mxCell id="qJP4CGAvpcmhAhPFVXNk-8" value="" style="endArrow=none;html=1;rounded=0;entryX=0.45;entryY=0.931;entryDx=0;entryDy=0;entryPerimeter=0;" edge="1" parent="1">
          <mxGeometry width="50" height="50" relative="1" as="geometry">
            <mxPoint x="100" y="1160" as="sourcePoint" />
            <mxPoint x="101" y="1029" as="targetPoint" />
            <Array as="points">
              <mxPoint x="101" y="1090" />
            </Array>
          </mxGeometry>
        </mxCell>
        <mxCell id="qJP4CGAvpcmhAhPFVXNk-9" value="" style="endArrow=none;html=1;rounded=0;entryX=0.45;entryY=0.931;entryDx=0;entryDy=0;entryPerimeter=0;" edge="1" parent="1">
          <mxGeometry width="50" height="50" relative="1" as="geometry">
            <mxPoint x="318.5" y="1160" as="sourcePoint" />
            <mxPoint x="319.5" y="1029" as="targetPoint" />
            <Array as="points">
              <mxPoint x="319.5" y="1090" />
            </Array>
          </mxGeometry>
        </mxCell>
        <mxCell id="qJP4CGAvpcmhAhPFVXNk-10" value="" style="endArrow=none;html=1;rounded=0;entryX=0.45;entryY=0.931;entryDx=0;entryDy=0;entryPerimeter=0;" edge="1" parent="1">
          <mxGeometry width="50" height="50" relative="1" as="geometry">
            <mxPoint x="540" y="1159" as="sourcePoint" />
            <mxPoint x="541" y="1028" as="targetPoint" />
            <Array as="points">
              <mxPoint x="541" y="1089" />
            </Array>
          </mxGeometry>
        </mxCell>
        <mxCell id="qJP4CGAvpcmhAhPFVXNk-11" value="" style="endArrow=none;html=1;rounded=0;entryX=0.45;entryY=0.931;entryDx=0;entryDy=0;entryPerimeter=0;" edge="1" parent="1">
          <mxGeometry width="50" height="50" relative="1" as="geometry">
            <mxPoint x="759.5" y="1159" as="sourcePoint" />
            <mxPoint x="760.5" y="1028" as="targetPoint" />
            <Array as="points">
              <mxPoint x="760.5" y="1089" />
            </Array>
          </mxGeometry>
        </mxCell>
        <mxCell id="qJP4CGAvpcmhAhPFVXNk-12" value="" style="endArrow=none;html=1;rounded=0;entryX=0.45;entryY=0.931;entryDx=0;entryDy=0;entryPerimeter=0;" edge="1" parent="1">
          <mxGeometry width="50" height="50" relative="1" as="geometry">
            <mxPoint x="980" y="1161" as="sourcePoint" />
            <mxPoint x="981" y="1030" as="targetPoint" />
            <Array as="points">
              <mxPoint x="981" y="1091" />
            </Array>
          </mxGeometry>
        </mxCell>
        <mxCell id="qJP4CGAvpcmhAhPFVXNk-13" value="" style="endArrow=none;html=1;rounded=0;" edge="1" parent="1">
          <mxGeometry width="50" height="50" relative="1" as="geometry">
            <mxPoint x="-120" y="1160" as="sourcePoint" />
            <mxPoint x="980" y="1160" as="targetPoint" />
          </mxGeometry>
        </mxCell>
        <mxCell id="qJP4CGAvpcmhAhPFVXNk-14" value="" style="endArrow=classic;html=1;rounded=0;" edge="1" parent="1" target="qJP4CGAvpcmhAhPFVXNk-2">
          <mxGeometry width="50" height="50" relative="1" as="geometry">
            <mxPoint x="410" y="1160" as="sourcePoint" />
            <mxPoint x="420" y="1030" as="targetPoint" />
          </mxGeometry>
        </mxCell>
      </root>
    </mxGraphModel>
  </diagram>
  <diagram id="K4Lx7p6xCT88aKOrAM7V" name="Página-2">
    <mxGraphModel dx="1434" dy="711" grid="1" gridSize="10" guides="1" tooltips="1" connect="1" arrows="1" fold="1" page="1" pageScale="1" pageWidth="850" pageHeight="1100" math="0" shadow="0">
      <root>
        <mxCell id="0" />
        <mxCell id="1" parent="0" />
        <mxCell id="cYRM0gtvB-JwlSaKfawE-1" value="" style="edgeStyle=orthogonalEdgeStyle;rounded=0;orthogonalLoop=1;jettySize=auto;html=1;" edge="1" parent="1" source="cYRM0gtvB-JwlSaKfawE-2" target="cYRM0gtvB-JwlSaKfawE-4">
          <mxGeometry relative="1" as="geometry" />
        </mxCell>
        <mxCell id="cYRM0gtvB-JwlSaKfawE-2" value="Inicio" style="ellipse;whiteSpace=wrap;html=1;" vertex="1" parent="1">
          <mxGeometry x="580" y="20" width="120" height="80" as="geometry" />
        </mxCell>
        <mxCell id="cYRM0gtvB-JwlSaKfawE-3" value="" style="edgeStyle=orthogonalEdgeStyle;rounded=0;orthogonalLoop=1;jettySize=auto;html=1;" edge="1" parent="1" source="cYRM0gtvB-JwlSaKfawE-4" target="cYRM0gtvB-JwlSaKfawE-6">
          <mxGeometry relative="1" as="geometry" />
        </mxCell>
        <mxCell id="cYRM0gtvB-JwlSaKfawE-4" value="Definir letra como caracter" style="whiteSpace=wrap;html=1;" vertex="1" parent="1">
          <mxGeometry x="580" y="190" width="120" height="60" as="geometry" />
        </mxCell>
        <mxCell id="cYRM0gtvB-JwlSaKfawE-5" value="" style="edgeStyle=orthogonalEdgeStyle;rounded=0;orthogonalLoop=1;jettySize=auto;html=1;" edge="1" parent="1" source="cYRM0gtvB-JwlSaKfawE-6" target="cYRM0gtvB-JwlSaKfawE-8">
          <mxGeometry relative="1" as="geometry" />
        </mxCell>
        <mxCell id="cYRM0gtvB-JwlSaKfawE-6" value="&lt;div&gt;&quot;Ingresa una letra&quot;&lt;/div&gt;&lt;div&gt;&lt;br&gt;&lt;/div&gt;" style="shape=document;whiteSpace=wrap;html=1;boundedLbl=1;" vertex="1" parent="1">
          <mxGeometry x="580" y="320" width="120" height="80" as="geometry" />
        </mxCell>
        <mxCell id="cYRM0gtvB-JwlSaKfawE-7" value="" style="edgeStyle=orthogonalEdgeStyle;rounded=0;orthogonalLoop=1;jettySize=auto;html=1;" edge="1" parent="1" source="cYRM0gtvB-JwlSaKfawE-8" target="cYRM0gtvB-JwlSaKfawE-21">
          <mxGeometry relative="1" as="geometry" />
        </mxCell>
        <mxCell id="cYRM0gtvB-JwlSaKfawE-8" value="letra" style="shape=parallelogram;perimeter=parallelogramPerimeter;whiteSpace=wrap;html=1;fixedSize=1;" vertex="1" parent="1">
          <mxGeometry x="580" y="490" width="120" height="60" as="geometry" />
        </mxCell>
        <mxCell id="cYRM0gtvB-JwlSaKfawE-9" value="" style="edgeStyle=orthogonalEdgeStyle;rounded=0;orthogonalLoop=1;jettySize=auto;html=1;" edge="1" parent="1" source="cYRM0gtvB-JwlSaKfawE-21" target="cYRM0gtvB-JwlSaKfawE-22">
          <mxGeometry relative="1" as="geometry">
            <Array as="points">
              <mxPoint x="250" y="660" />
            </Array>
          </mxGeometry>
        </mxCell>
        <mxCell id="cYRM0gtvB-JwlSaKfawE-10" value="a" style="edgeLabel;html=1;align=center;verticalAlign=middle;resizable=0;points=[];" vertex="1" connectable="0" parent="cYRM0gtvB-JwlSaKfawE-9">
          <mxGeometry x="0.6222" y="2" relative="1" as="geometry">
            <mxPoint as="offset" />
          </mxGeometry>
        </mxCell>
        <mxCell id="cYRM0gtvB-JwlSaKfawE-11" style="edgeStyle=orthogonalEdgeStyle;rounded=0;orthogonalLoop=1;jettySize=auto;html=1;" edge="1" parent="1" source="cYRM0gtvB-JwlSaKfawE-21" target="cYRM0gtvB-JwlSaKfawE-27">
          <mxGeometry relative="1" as="geometry">
            <mxPoint x="1040" y="770" as="targetPoint" />
            <Array as="points">
              <mxPoint x="1041" y="660" />
            </Array>
          </mxGeometry>
        </mxCell>
        <mxCell id="cYRM0gtvB-JwlSaKfawE-12" value="&quot;En caso contrario&quot;" style="edgeLabel;html=1;align=center;verticalAlign=middle;resizable=0;points=[];" vertex="1" connectable="0" parent="cYRM0gtvB-JwlSaKfawE-11">
          <mxGeometry x="0.0022" y="4" relative="1" as="geometry">
            <mxPoint as="offset" />
          </mxGeometry>
        </mxCell>
        <mxCell id="cYRM0gtvB-JwlSaKfawE-13" style="edgeStyle=orthogonalEdgeStyle;rounded=0;orthogonalLoop=1;jettySize=auto;html=1;entryX=0.5;entryY=0;entryDx=0;entryDy=0;" edge="1" parent="1" source="cYRM0gtvB-JwlSaKfawE-21" target="cYRM0gtvB-JwlSaKfawE-24">
          <mxGeometry relative="1" as="geometry">
            <Array as="points">
              <mxPoint x="640" y="740" />
              <mxPoint x="550" y="740" />
            </Array>
          </mxGeometry>
        </mxCell>
        <mxCell id="cYRM0gtvB-JwlSaKfawE-14" value="i" style="edgeLabel;html=1;align=center;verticalAlign=middle;resizable=0;points=[];" vertex="1" connectable="0" parent="cYRM0gtvB-JwlSaKfawE-13">
          <mxGeometry x="0.6235" y="-2" relative="1" as="geometry">
            <mxPoint as="offset" />
          </mxGeometry>
        </mxCell>
        <mxCell id="cYRM0gtvB-JwlSaKfawE-15" style="edgeStyle=orthogonalEdgeStyle;rounded=0;orthogonalLoop=1;jettySize=auto;html=1;entryX=0.5;entryY=0;entryDx=0;entryDy=0;" edge="1" parent="1" source="cYRM0gtvB-JwlSaKfawE-21" target="cYRM0gtvB-JwlSaKfawE-25">
          <mxGeometry relative="1" as="geometry" />
        </mxCell>
        <mxCell id="cYRM0gtvB-JwlSaKfawE-16" value="O" style="edgeLabel;html=1;align=center;verticalAlign=middle;resizable=0;points=[];" vertex="1" connectable="0" parent="cYRM0gtvB-JwlSaKfawE-15">
          <mxGeometry x="0.6" relative="1" as="geometry">
            <mxPoint as="offset" />
          </mxGeometry>
        </mxCell>
        <mxCell id="cYRM0gtvB-JwlSaKfawE-17" style="edgeStyle=orthogonalEdgeStyle;rounded=0;orthogonalLoop=1;jettySize=auto;html=1;" edge="1" parent="1" source="cYRM0gtvB-JwlSaKfawE-21" target="cYRM0gtvB-JwlSaKfawE-23">
          <mxGeometry relative="1" as="geometry" />
        </mxCell>
        <mxCell id="cYRM0gtvB-JwlSaKfawE-18" value="e" style="edgeLabel;html=1;align=center;verticalAlign=middle;resizable=0;points=[];" vertex="1" connectable="0" parent="cYRM0gtvB-JwlSaKfawE-17">
          <mxGeometry x="0.6667" y="5" relative="1" as="geometry">
            <mxPoint as="offset" />
          </mxGeometry>
        </mxCell>
        <mxCell id="cYRM0gtvB-JwlSaKfawE-19" style="edgeStyle=orthogonalEdgeStyle;rounded=0;orthogonalLoop=1;jettySize=auto;html=1;" edge="1" parent="1" source="cYRM0gtvB-JwlSaKfawE-21" target="cYRM0gtvB-JwlSaKfawE-26">
          <mxGeometry relative="1" as="geometry" />
        </mxCell>
        <mxCell id="cYRM0gtvB-JwlSaKfawE-20" value="U" style="edgeLabel;html=1;align=center;verticalAlign=middle;resizable=0;points=[];" vertex="1" connectable="0" parent="cYRM0gtvB-JwlSaKfawE-19">
          <mxGeometry x="0.4" relative="1" as="geometry">
            <mxPoint as="offset" />
          </mxGeometry>
        </mxCell>
        <mxCell id="cYRM0gtvB-JwlSaKfawE-21" value="letra" style="shape=hexagon;perimeter=hexagonPerimeter2;whiteSpace=wrap;html=1;fixedSize=1;" vertex="1" parent="1">
          <mxGeometry x="580" y="620" width="120" height="80" as="geometry" />
        </mxCell>
        <mxCell id="cYRM0gtvB-JwlSaKfawE-22" value="letra, &quot;es vocal y es la a&quot;" style="shape=document;whiteSpace=wrap;html=1;boundedLbl=1;" vertex="1" parent="1">
          <mxGeometry x="190" y="780" width="120" height="80" as="geometry" />
        </mxCell>
        <mxCell id="cYRM0gtvB-JwlSaKfawE-23" value="letra, &quot;es vocal y es la e&quot;" style="shape=document;whiteSpace=wrap;html=1;boundedLbl=1;" vertex="1" parent="1">
          <mxGeometry x="340" y="780" width="120" height="80" as="geometry" />
        </mxCell>
        <mxCell id="cYRM0gtvB-JwlSaKfawE-24" value="letra, &quot;es vocal y es la i&quot;" style="shape=document;whiteSpace=wrap;html=1;boundedLbl=1;" vertex="1" parent="1">
          <mxGeometry x="490" y="780" width="120" height="80" as="geometry" />
        </mxCell>
        <mxCell id="cYRM0gtvB-JwlSaKfawE-25" value="letra, &quot;es vocal y es la o&quot;" style="shape=document;whiteSpace=wrap;html=1;boundedLbl=1;" vertex="1" parent="1">
          <mxGeometry x="650" y="780" width="120" height="80" as="geometry" />
        </mxCell>
        <mxCell id="cYRM0gtvB-JwlSaKfawE-26" value="letra, &quot;es vocal y es la u&quot;" style="shape=document;whiteSpace=wrap;html=1;boundedLbl=1;" vertex="1" parent="1">
          <mxGeometry x="810" y="780" width="120" height="80" as="geometry" />
        </mxCell>
        <mxCell id="cYRM0gtvB-JwlSaKfawE-27" value="letra, &quot;no es vocal&quot;" style="shape=document;whiteSpace=wrap;html=1;boundedLbl=1;" vertex="1" parent="1">
          <mxGeometry x="1000" y="780" width="120" height="80" as="geometry" />
        </mxCell>
        <mxCell id="cYRM0gtvB-JwlSaKfawE-28" value="Fin" style="ellipse;whiteSpace=wrap;html=1;" vertex="1" parent="1">
          <mxGeometry x="580" y="980" width="120" height="80" as="geometry" />
        </mxCell>
        <mxCell id="cYRM0gtvB-JwlSaKfawE-29" value="" style="endArrow=none;html=1;rounded=0;" edge="1" parent="1">
          <mxGeometry width="50" height="50" relative="1" as="geometry">
            <mxPoint x="250.5" y="938" as="sourcePoint" />
            <mxPoint x="250" y="848" as="targetPoint" />
          </mxGeometry>
        </mxCell>
        <mxCell id="cYRM0gtvB-JwlSaKfawE-30" value="" style="endArrow=none;html=1;rounded=0;" edge="1" parent="1">
          <mxGeometry width="50" height="50" relative="1" as="geometry">
            <mxPoint x="400" y="938" as="sourcePoint" />
            <mxPoint x="399.5" y="848" as="targetPoint" />
          </mxGeometry>
        </mxCell>
        <mxCell id="cYRM0gtvB-JwlSaKfawE-31" value="" style="endArrow=none;html=1;rounded=0;" edge="1" parent="1">
          <mxGeometry width="50" height="50" relative="1" as="geometry">
            <mxPoint x="550" y="938" as="sourcePoint" />
            <mxPoint x="549.5" y="848" as="targetPoint" />
          </mxGeometry>
        </mxCell>
        <mxCell id="cYRM0gtvB-JwlSaKfawE-32" value="" style="endArrow=none;html=1;rounded=0;" edge="1" parent="1">
          <mxGeometry width="50" height="50" relative="1" as="geometry">
            <mxPoint x="700" y="940" as="sourcePoint" />
            <mxPoint x="700" y="860" as="targetPoint" />
          </mxGeometry>
        </mxCell>
        <mxCell id="cYRM0gtvB-JwlSaKfawE-33" value="" style="endArrow=none;html=1;rounded=0;" edge="1" parent="1">
          <mxGeometry width="50" height="50" relative="1" as="geometry">
            <mxPoint x="860.5" y="938" as="sourcePoint" />
            <mxPoint x="860" y="848" as="targetPoint" />
          </mxGeometry>
        </mxCell>
        <mxCell id="cYRM0gtvB-JwlSaKfawE-34" value="" style="endArrow=none;html=1;rounded=0;" edge="1" parent="1">
          <mxGeometry width="50" height="50" relative="1" as="geometry">
            <mxPoint x="1060" y="938" as="sourcePoint" />
            <mxPoint x="1059.5" y="848" as="targetPoint" />
          </mxGeometry>
        </mxCell>
        <mxCell id="cYRM0gtvB-JwlSaKfawE-35" value="" style="endArrow=none;html=1;rounded=0;" edge="1" parent="1">
          <mxGeometry width="50" height="50" relative="1" as="geometry">
            <mxPoint x="250" y="940" as="sourcePoint" />
            <mxPoint x="1060" y="940" as="targetPoint" />
          </mxGeometry>
        </mxCell>
        <mxCell id="cYRM0gtvB-JwlSaKfawE-36" value="" style="endArrow=classic;html=1;rounded=0;" edge="1" parent="1">
          <mxGeometry width="50" height="50" relative="1" as="geometry">
            <mxPoint x="640" y="940" as="sourcePoint" />
            <mxPoint x="639.5" y="980" as="targetPoint" />
          </mxGeometry>
        </mxCell>
      </root>
    </mxGraphModel>
  </diagram>
</mxfile>
